#!OML:ASF H:\charlestonDancing\Project 1\Capture day 1\Session 1\femaleDancer.ASF
:FULLY-SPECIFIED
:DEGREES
411
root -13.937 17.9052 1.95762 180.368 -66.9448 -181.104
lowerback 6.72676 -6.52886 1.45017
upperback -3.47807 -8.47823 2.78212
thorax -7.18722 -4.18326 3.19423
lowerneck 4.24686 -7.28658 -2.32162
upperneck -2.68641 -9.78353 2.05595
head -1.32265 -4.90179 1.2414
rclavicle 1.85367e-014 1.66979e-014
rhumerus -38.9622 20.584 -83.5543
rradius 30.2883
rwrist 28.0381
rhand -27.301 -31.8265
rfingers 7.12502
rthumb -0.710772 -61.8051
lclavicle 1.85367e-014 1.66979e-014
lhumerus -31.5742 -3.96431 74.1451
lradius 71.2267
lwrist -18.7919
lhand -26.9335 -2.86878
lfingers 7.12502
lthumb -0.355883 27.1107
rfemur -8.00252 8.34146 20.4572
rtibia 29.1746
rfoot -19.5419 3.66646
rtoes -12.0964
lfemur -7.60512 9.32163 -20.7328
ltibia 30.4107
lfoot -20.0081 5.54172
ltoes -13.5617
412
root -13.9489 17.9081 1.95876 180.912 -66.8805 -181.588
lowerback 6.47932 -6.51524 1.39843
upperback -3.60867 -8.47302 2.78804
thorax -7.17646 -4.18062 3.20588
lowerneck 4.14417 -7.32764 -2.2883
upperneck -2.26794 -9.84359 1.86711
head -1.18118 -4.93053 1.16002
rclavicle -1.34677e-014 -7.15625e-015
rhumerus -38.9925 20.8911 -83.7538
rradius 30.432
rwrist 27.862
rhand -27.5969 -31.4546
rfingers 7.12502
rthumb -0.996585 -61.432
lclavicle -1.34677e-014 -7.15625e-015
lhumerus -31.8909 -4.06243 74.8523
lradius 70.8472
lwrist -18.826
lhand -26.866 -2.98755
lfingers 7.12502
lthumb -0.290635 26.992
rfemur -8.09344 8.2911 20.2223
rtibia 29.1356
rfoot -19.5419 3.66646
rtoes -12.0964
lfemur -7.54635 9.30018 -20.9962
ltibia 30.1971
lfoot -20.1889 5.51
ltoes -13.227
413
root -13.9563 17.912 1.96074 181.276 -66.7964 -181.847
lowerback 6.25633 -6.468 1.36622
upperback -3.7297 -8.41961 2.81431
thorax -7.17084 -4.15482 3.22495
lowerneck 4.11781 -7.38669 -2.30428
upperneck -1.98468 -9.92685 1.82441
head -1.08639 -4.97307 1.14
rclavicle 9.95414e-014 -7.15625e-015
rhumerus -38.8852 21.0217 -83.8791
rradius 30.3049
rwrist 27.7188
rhand -27.8678 -31.3839
rfingers 7.12502
rthumb -1.25819 -61.3599
lclavicle 9.95414e-014 -7.15625e-015
lhumerus -32.1252 -4.24146 75.5561
lradius 70.42
lwrist -18.7401
lhand -26.7017 -2.95545
lfingers 7.12502
lthumb -0.131943 27.0243
rfemur -8.25225 8.1554 20.0623
rtibia 29.0947
rfoot -19.5419 3.66646
rtoes -12.0964
lfemur -7.52936 9.30996 -21.1753
ltibia 29.9555
lfoot -20.2872 5.49362
ltoes -12.3263
414
root -13.9598 17.919 1.95957 181.341 -66.7763 -181.721
lowerback 5.97062 -6.40592 1.43578
upperback -3.82016 -8.33882 2.86115
thorax -7.1092 -4.1216 3.19684
lowerneck 4.1961 -7.46186 -2.38726
upperneck -1.8915 -10.0318 1.94652
head -1.05783 -5.02808 1.19265
rclavicle 1.93815e-014 3.26007e-014
rhumerus -38.5951 20.7816 -83.869
rradius 29.9681
rwrist 28.0139
rhand -27.7023 -31.7999
rfingers 7.12502
rthumb -1.09843 -61.7768
lclavicle 1.93815e-014 3.26007e-014
lhumerus -32.2494 -4.51979 76.2549
lradius 69.8808
lwrist -18.709
lhand -26.6064 -3.00649
lfingers 7.12502
lthumb -0.0399286 26.9733
rfemur -8.42968 8.18102 20.0723
rtibia 29.0331
rfoot -19.5419 3.66646
rtoes -12.0964
lfemur -7.60198 9.30282 -21.1634
ltibia 29.6944
lfoot -20.2598 5.54853
ltoes -11.6135
415
root -13.9617 17.9301 1.9571 181.737 -66.8537 -181.979
lowerback 5.74862 -6.36361 1.31365
upperback -3.91864 -8.30003 2.87819
thorax -7.06783 -4.09931 3.25445
lowerneck 4.29508 -7.53613 -2.53366
upperneck -1.83346 -10.1396 2.05768
head -1.04109 -5.08377 1.25433
rclavicle -1.5048e-013 2.14687e-014
rhumerus -38.4054 20.4251 -83.7814
rradius 29.6908
rwrist 28.3299
rhand -27.5544 -31.9317
rfingers 7.12502
rthumb -0.95557 -61.9093
lclavicle -1.5048e-013 2.14687e-014
lhumerus -32.3584 -4.74723 76.9324
lradius 69.2344
lwrist -18.8916
lhand -26.3513 -3.45408
lfingers 7.12502
lthumb 0.206403 26.5256
rfemur -8.68093 8.06698 19.9221
rtibia 28.9474
rfoot -19.5419 3.66646
rtoes -12.0964
lfemur -7.69674 9.2517 -21.3034
ltibia 29.4897
lfoot -20.2009 5.65941
ltoes -11.6565
416
root -13.9646 17.9454 1.95589 181.644 -66.95 -181.79
lowerback 5.66445 -6.30871 1.35383
upperback -4.01673 -8.22449 2.946
thorax -7.12271 -4.06364 3.29277
lowerneck 4.41417 -7.64356 -2.72171
upperneck -1.76389 -10.2959 2.13065
head -1.02247 -5.16301 1.31227
rclavicle -2.80286e-014 2.38542e-014
rhumerus -38.4034 20.0875 -83.6741
rradius 29.4685
rwrist 28.3801
rhand -27.7324 -31.7535
rfingers 7.12502
rthumb -1.12744 -61.7303
lclavicle -2.80286e-014 2.38542e-014
lhumerus -32.4821 -4.97854 77.594
lradius 68.5679
lwrist -19.3972
lhand -25.7404 -3.9698
lfingers 7.12502
lthumb 0.796448 26.0085
rfemur -9.08026 7.86179 19.9854
rtibia 28.8697
rfoot -19.5419 3.66646
rtoes -12.0964
lfemur -7.72125 9.27665 -21.2356
ltibia 29.3556
lfoot -20.1473 5.69687
ltoes -11.8332
417
root -13.9664 17.9451 1.95675 181.217 -67.0964 -181.283
lowerback 5.58572 -6.26079 1.53538
upperback -4.04586 -8.14621 3.00389
thorax -7.12879 -4.03413 3.23946
lowerneck 4.41046 -7.79881 -2.86026
upperneck -1.68294 -10.5094 2.24308
head -0.977686 -5.27142 1.36836
rclavicle -4.3832e-014 1.03368e-014
rhumerus -38.3113 19.621 -83.5488
rradius 29.1636
rwrist 28.5588
rhand -27.7058 -31.8417
rfingers 7.12502
rthumb -1.10178 -61.8186
lclavicle -4.3832e-014 1.03368e-014
lhumerus -32.5169 -5.38174 78.2411
lradius 67.914
lwrist -19.7437
lhand -25.3517 -3.97835
lfingers 7.12502
lthumb 1.17187 25.9982
rfemur -9.06627 7.6656 20.1951
rtibia 28.8016
rfoot -19.5419 3.66646
rtoes -12.0964
lfemur -7.71709 9.4135 -21.0106
ltibia 29.2507
lfoot -19.9889 5.62133
ltoes -12.1778
418
root -13.9648 17.9357 1.95766 181.407 -67.3057 -181.497
lowerback 5.54635 -6.24786 1.39917
upperback -4.02881 -8.14281 2.95568
thorax -7.07559 -4.0273 3.25494
lowerneck 4.26621 -7.95682 -2.86613
upperneck -1.57833 -10.7165 2.31729
head -0.910079 -5.37622 1.38303
rclavicle -9.66093e-014 1.98785e-014
rhumerus -38.1133 19.0538 -83.4391
rradius 28.7762
rwrist 29.0568
rhand -27.5472 -31.9764
rfingers 7.12502
rthumb -0.948561 -61.954
lclavicle -9.66093e-014 1.98785e-014
lhumerus -32.5188 -5.89116 78.8616
lradius 67.2839
lwrist -19.6106
lhand -25.4673 -3.79859
lfingers 7.12502
lthumb 1.06026 26.1785
rfemur -8.62693 7.52045 20.0941
rtibia 28.7132
rfoot -19.5419 3.66646
rtoes -12.0964
lfemur -7.69674 9.49915 -21.0821
ltibia 29.1694
lfoot -19.8159 5.54672
ltoes -12.9143
419
root -13.9646 17.9354 1.95745 181.35 -67.5011 -181.557
lowerback 5.67025 -6.24914 1.28708
upperback -4.00109 -8.15043 2.92582
thorax -7.10533 -4.02428 3.29845
lowerneck 4.15229 -8.0807 -2.91481
upperneck -1.49554 -10.8808 2.40089
head -0.852937 -5.45942 1.40894
rclavicle 6.10269e-014 -9.54166e-015
rhumerus -38.0012 18.6272 -83.3981
rradius 28.3493
rwrist 29.5518
rhand -27.7914 -31.758
rfingers 7.12502
rthumb -1.18445 -61.7345
lclavicle 6.10269e-014 -9.54166e-015
lhumerus -32.5941 -6.27036 79.4203
lradius 66.6872
lwrist -19.6095
lhand -25.5552 -3.84642
lfingers 7.12502
lthumb 0.97534 26.1311
rfemur -8.42161 7.38254 20.0889
rtibia 28.6023
rfoot -19.5419 3.66646
rtoes -12.0964
lfemur -7.62 9.50886 -21.0707
ltibia 29.2688
lfoot -19.8585 5.39291
ltoes -13.286
420
root -13.9667 17.943 1.95733 180.666 -67.6156 -180.938
lowerback 5.81418 -6.20664 1.4442
upperback -3.95825 -8.07396 2.96063
thorax -7.16226 -3.99176 3.25703
lowerneck 4.13079 -8.20289 -3.09798
upperneck -1.54088 -11.0473 2.64963
head -0.835188 -5.54511 1.51624
rclavicle -5.71506e-014 5.08889e-014
rhumerus -38.0197 18.3391 -83.4051
rradius 28.0664
rwrist 29.8216
rhand -28.1216 -31.5454
rfingers 7.12502
rthumb -1.50332 -61.5199
lclavicle -5.71506e-014 5.08889e-014
lhumerus -32.6791 -6.64829 79.973
lradius 66.0676
lwrist -19.8229
lhand -25.4982 -3.75729
lfingers 7.12502
lthumb 1.03043 26.22
rfemur -8.58937 7.33565 20.3742
rtibia 28.4931
rfoot -19.5419 3.66646
rtoes -12.0964
lfemur -7.54706 9.51803 -20.7823
ltibia 29.4218
lfoot -19.975 5.24495
ltoes -13.2045
421
root -13.9615 17.9295 1.95887 179.779 -67.6507 -179.993
lowerback 5.89368 -6.10757 1.72497
upperback -3.92609 -7.91259 3.01139
thorax -7.21094 -3.92429 3.14847
lowerneck 4.25129 -8.3677 -3.32874
upperneck -1.76538 -11.2715 3.05957
head -0.883595 -5.66189 1.69598
rclavicle -4.30369e-014 4.53229e-014
rhumerus -38.1105 18.2014 -83.5096
rradius 27.8897
rwrist 29.8855
rhand -28.1786 -31.4332
rfingers 7.12502
rthumb -1.5584 -61.4073
lclavicle -4.30369e-014 4.53229e-014
lhumerus -32.7854 -7.13568 80.5786
lradius 65.4557
lwrist -19.8918
lhand -25.5723 -3.52974
lfingers 7.12502
lthumb 0.958789 26.4479
rfemur -8.15983 7.4147 20.7882
rtibia 28.3624
rfoot -19.5419 3.66646
rtoes -12.0964
lfemur -7.66025 9.48488 -20.387
ltibia 29.62
lfoot -20.0503 5.23559
ltoes -13.1678
